<?xml version="1.0" encoding="UTF-8" standalone="no"?>
<!DOCTYPE svg PUBLIC "-//W3C//DTD SVG 1.1//EN" "http://www.w3.org/Graphics/SVG/1.1/DTD/svg11.dtd">
<svg width="100%" height="100%" viewBox="0 0 1582 1108" version="1.1" xmlns="http://www.w3.org/2000/svg" xmlns:xlink="http://www.w3.org/1999/xlink" xml:space="preserve" xmlns:serif="http://www.serif.com/" style="fill-rule:evenodd;clip-rule:evenodd;stroke-linejoin:round;stroke-miterlimit:2;">
    <g transform="matrix(3.125,0,0,3.125,0,0)">
        <g transform="matrix(4.16667,0,0,4.16667,202.475,101.242)">
            <path d="M0,36.444L0,-0.001L31.561,18.222L0,36.444ZM70.352,-11.019C68.955,-16.246 64.838,-20.362 59.611,-21.76C50.138,-24.298 12.148,-24.298 12.148,-24.298C12.148,-24.298 -25.841,-24.298 -35.315,-21.76C-40.542,-20.362 -44.658,-16.246 -46.056,-11.019C-48.594,-1.545 -48.594,18.222 -48.594,18.222C-48.594,18.222 -48.594,37.988 -46.056,47.463C-44.658,52.689 -40.542,56.805 -35.315,58.203C-25.841,60.742 12.148,60.742 12.148,60.742C12.148,60.742 50.138,60.742 59.611,58.203C64.838,56.805 68.955,52.689 70.352,47.463C72.891,37.988 72.891,18.222 72.891,18.222C72.891,18.222 72.891,-1.545 70.352,-11.019" style="fill:rgb(45,42,38);fill-rule:nonzero;"/>
        </g>
    </g>
</svg>
